<?xml version="1.0" encoding="UTF-8" standalone="no"?>
<!-- Created with Inkscape (http://www.inkscape.org/) -->

<svg
   xmlns:dc="http://purl.org/dc/elements/1.1/"
   xmlns:cc="http://creativecommons.org/ns#"
   xmlns:rdf="http://www.w3.org/1999/02/22-rdf-syntax-ns#"
   xmlns:svg="http://www.w3.org/2000/svg"
   xmlns="http://www.w3.org/2000/svg"
   xmlns:inkscape="http://www.inkscape.org/namespaces/inkscape"
   version="1.1"
   width="621.61127"
   height="960"
   id="svg2"
   xml:space="preserve"><metadata
     id="metadata8"><rdf:RDF><cc:Work
         rdf:about=""><dc:format>image/svg+xml</dc:format><dc:type
           rdf:resource="http://purl.org/dc/dcmitype/StillImage" /></cc:Work></rdf:RDF></metadata><defs
     id="defs6"><clipPath
       id="clipPath12"><path
         d="m 0,0 1024,0 0,768 L 0,768 0,0 z"
         inkscape:connector-curvature="0"
         id="path14" /></clipPath><clipPath
       id="clipPath20"><path
         d="m 0,0 1024,0 0,768 L 0,768 0,0 z"
         inkscape:connector-curvature="0"
         id="path22" /></clipPath></defs><g
     transform="matrix(1.25,0,0,-1.25,0,960)"
     clip-path="url(#clipPath12)"
     id="g10"><g
       id="g16"><g
         clip-path="url(#clipPath20)"
         id="g18"><g
           transform="translate(262,112)"
           id="g24"><path
             d="m 0,0 c -115.243,0 -209,128.748 -209,287 0,158.252 93.757,287 209,287 C 115.243,574 209,445.252 209,287 209,128.748 115.243,0 0,0"
             inkscape:connector-curvature="0"
             id="path26"
             style="fill:#ffffff;fill-opacity:1;fill-rule:nonzero;stroke:none" /></g><g
           transform="translate(262,689)"
           id="g28"><path
             d="m 0,0 c -117.084,0 -212,-129.837 -212,-290 0,-160.163 94.916,-290 212,-290 117.084,0 212,129.837 212,290 C 212,-129.837 117.084,0 0,0 m 0,-6 c 113.589,0 206,-127.402 206,-284 0,-156.598 -92.411,-284 -206,-284 -113.589,0 -206,127.402 -206,284 0,156.598 92.411,284 206,284"
             inkscape:connector-curvature="0"
             id="path30"
             style="fill:#287951;fill-opacity:1;fill-rule:nonzero;stroke:none" /></g><g
           transform="translate(298.1611,652.5903)"
           id="g32"><path
             d="m 0,0 c 1.854,-1.715 -2.362,-2.921 0.703,-3.8 0.475,-0.136 0.95,-0.275 1.424,-0.416 0.348,-0.104 0.696,-0.21 1.043,-0.316 0.538,-0.165 1.074,-0.333 1.61,-0.505 2.182,-0.7 2.963,11.122 5.115,10.314 2.216,-0.831 6.394,-14.887 8.576,-15.831 0.452,-0.196 0.311,0.198 0.762,-0.003 7.119,-3.166 14.052,-6.926 20.768,-11.238 0.615,-0.395 1.227,-0.794 1.838,-1.198 1.674,-1.106 5.33,3.499 6.976,2.324 1.345,-0.96 3.292,-6.252 4.618,-7.257 2.692,-2.041 18.279,1.562 20.889,-0.659 3.336,-2.84 -8.031,-12.929 -4.838,-16.052 0.661,-0.645 0.408,-1.365 1.062,-2.022 46.786,-47.049 77.293,-124.216 77.293,-211.431 0,-143.319 -82.38,-259.5 -184,-259.5 -101.62,0 -184,116.181 -184,259.5 0,89.259 31.954,167.993 80.61,214.69 1.093,1.049 0.352,1.044 1.462,2.061 2.35,2.153 -8.578,11.191 -6.156,13.193 2.182,1.805 19.309,-1.02 21.548,0.66 2.058,1.544 -0.563,5.821 1.54,7.257 2.455,1.675 9.886,-0.864 12.401,0.66 0.593,0.36 1.188,0.715 1.785,1.066 5.456,3.212 11.046,6.063 16.754,8.534 0.451,0.195 0.904,0.388 1.356,0.579 2.445,1.028 6.336,14.659 8.822,15.547 2.495,0.891 3.584,-10.962 6.118,-10.217 0.714,0.21 1.43,0.414 2.147,0.612 0.605,0.168 1.211,0.331 1.818,0.49 3.537,0.926 -4.166,1.441 -2.606,3.398 3.27,4.104 15.663,10.399 36.061,10.994 C -15.28,12.054 -5.354,4.95 0,0"
             inkscape:connector-curvature="0"
             id="path34"
             style="fill:#287951;fill-opacity:1;fill-rule:nonzero;stroke:none" /></g><g
           transform="translate(371,390)"
           id="g36"><path
             d="m 0,0 c 0,-99.217 -48.8,-179.648 -109,-179.648 -60.199,0 -109,80.431 -109,179.648 0,99.217 48.801,179.648 109,179.648 C -48.8,179.648 0,99.217 0,0"
             inkscape:connector-curvature="0"
             id="path38"
             style="fill:#ffffff;fill-opacity:1;fill-rule:nonzero;stroke:none" /></g><g
           transform="translate(363,390.5)"
           id="g40"><path
             d="m 0,0 c 0,-95.664 -45.219,-172.215 -101,-172.215 -55.781,0 -101,76.551 -101,172.215 0,95.664 45.219,173.215 101,173.215 C -45.219,173.215 0,95.664 0,0"
             inkscape:connector-curvature="0"
             id="path42"
             style="fill:#2f8158;fill-opacity:1;fill-rule:nonzero;stroke:none" /></g><g
           transform="translate(357,390.5)"
           id="g44"><path
             d="m 0,0 c 0,-89.98 -42.535,-161.926 -95,-161.926 -52.467,0 -95,71.946 -95,161.926 0,89.98 42.533,164.926 95,164.926 C -42.535,164.926 0,89.98 0,0"
             inkscape:connector-curvature="0"
             id="path46"
             style="fill:#ffffff;fill-opacity:1;fill-rule:nonzero;stroke:none" /></g><g
           transform="translate(284.8433,161.6777)"
           id="g48"><path
             d="m 0,0 c 0,0 -2.416,-0.134 -0.805,1.88 0,0 5.771,4.697 4.429,9.529 0,0 -0.269,3.893 -4.698,3.759 0,0 -1.879,1.61 -0.134,3.354 0,0 3.758,1.075 4.966,4.699 0,0 0.537,4.966 -5.503,2.281 0,0 -2.013,0.269 -0.268,2.281 0,0 2.013,4.028 5.637,4.161 0,0 6.442,-0.133 5.905,-6.04 0,0 -0.402,-2.281 -3.892,-5.77 0,0 -1.476,-0.806 1.477,-2.014 0,0 3.221,-1.879 3.221,-5.638 C 10.335,12.482 10.2,5.234 0,0 m -5.1,25.367 c -2.818,-0.134 -7.65,1.074 -7.65,1.074 -2.953,-2.282 -0.806,-3.22 -0.806,-3.22 2.551,-0.941 5.1,-3.087 5.1,-3.087 3.759,-3.222 2.551,-8.59 2.551,-8.59 -3.221,-8.456 -9.53,-10.47 -9.53,-10.47 -4.295,-1.61 -2.684,1.477 -2.684,1.477 4.429,2.147 6.711,7.785 6.711,7.785 -1.074,6.845 -6.443,6.711 -6.443,6.711 -2.684,2.952 -1.61,4.562 -1.61,4.562 l 6.039,9.798 11.006,0 C -1.477,31.006 -5.1,25.367 -5.1,25.367 M -26.843,8.322 c 0,0 -6.309,-6.04 -8.322,-7.515 0,0 -2.952,-0.537 -1.476,2.281 0,0 7.516,6.846 8.187,9.798 0,0 3.356,6.039 -1.476,12.347 0,0 -4.564,3.491 -5.235,-2.683 0,0 2.148,-3.489 3.893,-4.161 0,0 1.745,-1.611 1.208,-3.221 0,0 -3.624,-7.517 -9.127,-1.074 0,0 -4.027,5.905 0.402,12.751 0,0 4.698,4.295 7.114,5.099 0,0 7.651,1.745 10.469,-7.381 0,0 2.013,-8.993 -5.637,-16.241 M -45.097,7.114 -50.063,2.147 c 0,0 -1.074,-0.536 -1.074,1.612 l 0,21.207 -3.087,0 c 0,0 -0.537,1.342 -0.134,1.879 0,0 4.832,2.818 5.503,4.428 0,0 1.476,1.342 3.758,0 l 0,-24.159 z m 73.232,3.775 c 0,0 2.714,7.719 0.169,12.471 l -11.63,0 0,2.867 11.461,0 0,1.01 c 0,0 -7.584,25.956 -60.677,20.732 l -1.18,0 c 0,0 -1.517,6.911 7.079,8.595 0,0 6.405,2.024 12.304,-1.684 0,0 1.854,-1.855 7.248,0.674 0,0 1.854,1.179 1.348,4.383 0,0 -9.607,15.842 -28.821,6.067 0,0 -11.125,-5.563 -10.957,-16.856 l -0.336,-1.853 c 0,0 -25.957,-0.168 -29.328,-20.564 l 0,-0.673 14.495,0 0,-2.529 -15,0 c 0,0 -1.604,-8.148 0.505,-12.977 l 15.338,0 0,-1.855 -14.327,0 c 0,0 3.034,-19.384 35.733,-24.608 0,0 20.061,-2.833 34.894,0.538 0,0 26.877,4.957 31.682,24.238 l -11.63,0 0,2.024 11.63,0 z"
             inkscape:connector-curvature="0"
             id="path50"
             style="fill:#ffffff;fill-opacity:1;fill-rule:nonzero;stroke:none" /></g><g
           transform="translate(255.5225,284.9736)"
           id="g52"><path
             d="m 0,0 0,-12.213 12.213,0 0,10.12 L 5.234,5.933 0,0 z"
             inkscape:connector-curvature="0"
             id="path54"
             style="fill:#2e8056;fill-opacity:1;fill-rule:nonzero;stroke:none" /></g><path
           d="m 250.637,467.866 21.984,0 0,19.89 -21.984,0 0,-19.89 z"
           inkscape:connector-curvature="0"
           id="path56"
           style="fill:#2e8056;fill-opacity:1;fill-rule:nonzero;stroke:none" /><g
           transform="translate(260.7573,296.4893)"
           id="g58"><path
             d="m 0,0 9.421,-10.817 0,-12.911 8.375,0 0,13.26 -6.281,0 -10.468,13.609 -3.141,0 -9.77,-15.005 -6.979,0 0,-11.864 10.119,0 0,13.26 L 0,0 z"
             inkscape:connector-curvature="0"
             id="path60"
             style="fill:#2e8056;fill-opacity:1;fill-rule:nonzero;stroke:none" /></g><g
           transform="translate(261.4541,471.2383)"
           id="g62"><path
             d="M 0,0 C 4.418,0 8,3.078 8,6.875 8,10.672 4.418,13.75 0,13.75 -4.418,13.75 -8,10.672 -8,6.875 -8,3.078 -4.418,0 0,0"
             inkscape:connector-curvature="0"
             id="path64"
             style="fill:#2e8056;fill-opacity:1;fill-rule:nonzero;stroke:none" /></g><path
           d="m 288.672,309.051 2.094,0 0,-3.489 -2.094,0 0,3.489 z m 3.49,-15.702 -3.839,0 0,6.63 3.839,0 0,-6.63 z m 2.791,12.562 -2.094,0 0,3.141 2.094,0 0,-3.141 z m 3.839,-12.562 -3.489,0 0,6.281 3.489,0 0,-6.281 z m -1.396,15.702 2.792,0 0,-3.838 -2.792,0 0,3.838 z m 10.817,-15.353 -4.885,0 0,5.583 4.885,0 0,-5.583 z m -0.697,13.958 1.744,0 0,-1.396 -1.744,0 0,1.396 z m 3.489,0.348 2.442,0 0,-3.14 -2.442,0 0,3.14 z m 3.489,-15.004 -3.839,0 0,6.63 3.839,0 0,-6.63 z m 8.375,12.563 -2.094,0 0,2.791 2.094,0 0,-2.791 z m -42.571,8.024 0,-33.591 48.503,0 0,-2.839 -48.503,0 0,-4.768 c 2.011,-0.679 5.621,-2.488 6.846,-6.955 l 0,-6.955 -1.961,0 c 0,0 1.054,11.415 -6.281,11.491 l -39.081,0 c 0,0 -4.188,0.697 -4.188,-5.583 l 0,-5.908 -2.791,0 0,9.048 c 0,0 0.698,5.583 6.979,5.234 l 0,3.839 -47.575,0 -2.348,3.838 49.923,0 0,52.69 2.093,0 0,-45.013 5.932,0 8.265,12.562 -3.729,0 -0.349,20.936 c 0,0 4.536,10.119 9.073,10.119 0,0 5.583,-2.441 8.723,-9.77 l 0,-21.285 -4.386,0 8.225,-11.515 4.885,0 0,43.269 1.745,0 0,-15.354 15.005,0 0,3.489 4.186,0 0,-3.489 5.583,0 0,4.885 2.444,0 0,-4.885 19.54,0 0,3.489 2.792,0 0,-3.489 16.4,0 0,-3.49 -65.95,0 z m 61.064,-7.676 -1.047,0 0,3.141 1.047,0 0,-3.141 z m -6.28,1.745 2.442,0 0,-2.443 -2.442,0 0,2.443 z m 3.141,-14.307 -3.49,0 0,5.234 3.49,0 0,-5.234 z m -7.328,11.166 -3.489,0 0,3.489 3.489,0 0,-3.489 z m -141.671,6.281 3.838,0 0,-5.932 -3.838,0 0,5.932 z m -3.839,-4.885 -3.141,0 0,4.885 3.141,0 0,-4.885 z m 11.516,5.234 3.838,0 0,-4.885 -3.838,0 0,4.885 z m 8.723,-2.094 2.094,0 0,-2.792 -2.094,0 0,2.792 z m 2.792,-8.374 4.536,0 0,-6.979 -4.536,0 0,6.979 z m 1.744,9.072 2.442,0 0,-3.838 -2.442,0 0,3.838 z m 9.073,-16.051 -3.141,0 0,6.63 3.141,0 0,-6.63 z m -5.234,15.702 2.442,0 0,-3.49 -2.442,0 0,3.49 z m 7.677,-9.072 4.536,0 0,-6.979 -4.536,0 0,6.979 z m 0,9.77 2.093,0 0,-3.838 -2.093,0 0,3.838 z m 4.187,0.349 1.396,0 0,-4.886 -1.396,0 0,4.886 z m 3.489,-10.468 4.885,0 0,-6.28 -4.885,0 0,6.28 z m 0,10.119 2.442,0 0,-3.838 -2.442,0 0,3.838 z m 13.958,25.752 33.499,0 0,-3 -33.499,0 0,3 z m 12.213,115.919 3.14,0 0,-24.426 -3.14,0 0,24.426 z m -6.281,0.348 3.14,0 0,-24.426 -3.14,0 0,24.426 z m 3.489,-38.384 c 3.141,0.35 3.839,-6.28 3.839,-6.28 l 0,-65.602 -6.979,0 -0.698,65.602 c -0.349,5.932 3.838,6.28 3.838,6.28 m 15.353,38.035 3.14,0 0,-24.426 -3.14,0 0,24.426 z m -5.931,0.001 3.14,0 0,-24.426 -3.14,0 0,24.426 z m 4.536,-37.733 c 3.14,0.349 3.838,-6.281 3.838,-6.281 l 0,-65.602 -6.979,0 -0.698,65.602 c -0.349,5.932 3.839,6.281 3.839,6.281 m -18.494,76.116 27.217,0 0,-24.426 -27.217,0 0,24.426 z m 6.979,10.468 2.792,0 0,-4.885 -2.792,0 0,4.885 z m 4.536,13.26 3.838,0 0,-4.885 -3.838,0 0,4.885 z m 4.536,-13.26 3.489,0 0,-5.234 -3.489,0 0,5.234 z m 31.057,-173.424 1.744,0 0,-2.792 -1.744,0 0,2.792 z m 9.769,0 2.792,0 0,-2.442 -2.792,0 0,2.442 z m 8.375,-6.63 2.792,0 0,-3.142 -2.792,0 0,3.142 z m 0.699,6.63 1.047,0 0,-2.442 -1.047,0 0,2.442 z m 11.514,0.349 3.839,0 0,-3.141 -3.839,0 0,3.141 z m 10.119,-7.676 2.792,0 0,-2.443 -2.792,0 0,2.443 z m 2.792,6.979 3.141,0 0,-2.442 -3.141,0 0,2.442 z m -112.359,-1.047 -3.489,0 0,3.141 3.489,0 0,-3.141 z m -13.609,-6.63 -3.489,0 0,2.792 3.489,0 0,-2.792 z m -5.583,6.978 -2.094,0 0,1.396 2.094,0 0,-1.396 z m -13.26,-1.046 -2.792,0 0,3.142 2.792,0 0,-3.142 z m -12.213,0.349 -2.443,0 0,2.792 2.443,0 0,-2.792 z m 146.905,7.676 -4.187,14.656 -2.443,0 -2.443,-14.307 -3.14,0 -2.443,15.703 -2.442,0 -3.49,-16.401 -4.885,0 -3.14,18.494 -7.677,0 -6.281,-18.494 -3.141,0 0,123.177 13.609,0 0,10.468 -13.26,0 0,24.077 -5.583,0 0,14.307 -8.025,52.69 c 0,0 -6.282,2.79 -13.261,-0.35 0,0 -3.489,-32.8 -8.025,-53.737 l 0,-11.864 -7.677,0 0,-24.775 -13.259,0 0,-9.421 13.259,0 0,-122.829 -4.187,0 -4.187,16.75 -9.771,0 -3.489,-18.145 -2.443,0 -3.838,16.4 -3.839,0 -1.744,-15.005 -2.443,0 -3.838,13.609 -1.745,0 -3.14,-15.004 -19.89,0 -3.141,0 c 0,0 -1.444,-5.062 0.698,-15.313 l 0,1.008 11.166,0 0,3.14 3.49,0 0,-3.14 10.119,0 0,3.14 2.443,0 0,-3.14 21.285,0 0,3.489 2.443,0 0,-3.489 7.677,0 0,3.14 2.442,0 0,-3.14 4.536,0 0,-3.839 -64.946,0 c 1.428,-5.67 3.9,-12.687 8.069,-21.062 l 0,7.454 3.14,0 0,-8.375 -2.68,0 c 4.924,-9.718 12.116,-21.225 22.57,-34.547 l 112.708,0 c 0,0 25.473,28.964 32.801,74.675 l -22.332,0 z"
           inkscape:connector-curvature="0"
           id="path66"
           style="fill:#2e8056;fill-opacity:1;fill-rule:nonzero;stroke:none" /><g
           transform="translate(184.896,276.5977)"
           id="g68"><path
             d="m 0,0 56.858,0 0,3.833 L -1,3.833 0,0 z"
             inkscape:connector-curvature="0"
             id="path70"
             style="fill:#ffffff;fill-opacity:1;fill-rule:nonzero;stroke:none" /></g><g
           transform="translate(339.7539,276.5977)"
           id="g72"><path
             d="m 0,0 -59.858,0 0,3.833 L 1,3.833 0,0 z"
             inkscape:connector-curvature="0"
             id="path74"
             style="fill:#ffffff;fill-opacity:1;fill-rule:nonzero;stroke:none" /></g><g
           transform="translate(261.5693,471.2246)"
           id="g76"><path
             d="M 0,0 C -3.59,0 -6.5,2.91 -6.5,6.5 -6.5,10.09 -3.59,13 0,13 3.59,13 6.5,10.09 6.5,6.5 6.5,2.91 3.59,0 0,0 m 0,14.971 c -4.678,0 -8.471,-3.793 -8.471,-8.471 0,-4.678 3.793,-8.471 8.471,-8.471 4.678,0 8.471,3.793 8.471,8.471 0,4.678 -3.793,8.471 -8.471,8.471"
             inkscape:connector-curvature="0"
             id="path78"
             style="fill:#ffffff;fill-opacity:1;fill-rule:nonzero;stroke:none" /></g><g
           transform="translate(281.8291,644.0049)"
           id="g80"><path
             d="m 0,0 -14.187,-25.163 c 0,0 -4.015,-1.338 -9.369,0.267 L -38.814,1.07 c 0,0 -2.41,4.016 1.07,5.086 0,0 2.945,2.409 5.622,-4.014 0,0 1.873,-1.607 1.07,2.409 0,0 -1.338,4.55 2.677,4.55 0,0 2.409,0.268 2.945,-4.55 0,0 1.874,-2.677 2.141,0.267 0,0 -1.606,4.819 3.748,5.889 0,0 3.748,0.268 2.677,-4.818 0,0 1.071,-3.212 2.677,-0.268 0,0 -0.001,3.748 3.479,3.213 0,0 3.213,0.535 1.607,-3.748 0,0 1.606,-2.142 2.944,-0.268 0,0 3.48,2.945 3.48,-0.802 0,0 1.071,-2.143 2.409,-1.874 0,0 2.142,1.337 0.268,-2.142 m 0.233,-62.906 1.606,-3.481 c -2.141,-4.014 -12.046,-5.353 -12.046,-5.353 -4.55,-0.804 -3.211,4.818 -3.211,4.818 0,8.298 5.085,9.637 5.085,9.637 4.819,1.07 8.566,-5.621 8.566,-5.621 m -23.789,-8.834 c 0,0 -9.904,1.339 -12.046,5.353 l 1.606,3.481 c 0,0 3.747,6.691 8.566,5.621 0,0 5.086,-1.339 5.086,-9.637 0,0 1.339,-5.622 -3.212,-4.818 M 5.086,10.44 c -19.541,12.046 -50.86,1.874 -50.86,1.874 -4.551,-1.339 -2.677,-4.551 -2.677,-4.551 l 18.202,-30.517 -2.944,-0.267 0.268,-5.086 c -4.551,0 -4.551,-1.607 -4.551,-1.607 -1.338,-15.258 1.338,-21.682 1.338,-21.682 0,0 -1.606,1.338 -0.267,-1.071 1.338,-2.409 0.803,-3.212 0.803,-3.212 l -6.96,-10.44 c 2.677,-6.156 22.218,-11.242 22.218,-11.242 l 6.692,0 C 8.834,-68.796 6.96,-65.583 6.96,-65.583 l -6.424,10.172 c -1.606,1.338 -0.268,3.747 -0.268,3.747 2.142,8.031 2.141,22.219 2.141,22.219 -1.071,2.676 -5.353,2.14 -5.353,2.14 l -0.804,4.016 -4.55,1.339 15.526,26.233 c 3.48,5.889 -2.142,6.157 -2.142,6.157"
             inkscape:connector-curvature="0"
             id="path82"
             style="fill:#ffffff;fill-opacity:1;fill-rule:nonzero;stroke:none" /></g><g
           transform="translate(246.7622,614.291)"
           id="g84"><path
             d="m 0,0 c 0,0 -2.409,2.409 -1.606,5.89 0,0 -1.606,4.55 -4.551,0 l -3.48,-4.819 c 0,0 -2.408,-2.141 -2.944,2.409 l -0.536,12.314 c 0,0 -1.071,5.353 -3.212,1.339 0,0 -3.747,-1.874 -4.55,2.409 l -6.157,14.455 c 0,0 -1.874,5.621 -4.016,-1.071 l -4.551,-14.99 c 0,0 -0.267,-5.889 -5.353,-2.142 0,0 -5.086,2.409 -2.677,-2.409 0,0 4.015,-4.016 2.141,-9.102 0,0 -1.606,-2.409 -6.156,5.354 0,0 -3.212,2.141 -4.016,-1.873 0,0 -1.07,-1.874 -10.44,5.621 0,0 -3.747,2.409 -4.282,-1.874 0,0 -0.536,-7.228 -18.203,-2.945 0,0 -6.693,1.071 1.338,-4.818 0,0 15.258,-13.384 0.536,-17.935 0,0 -3.481,-3.48 4.015,-2.409 0,0 13.652,0.268 9.101,-6.96 0,0 -1.606,-2.141 1.874,-2.141 0,0 4.551,1.339 4.551,-2.677 0,0 -7.228,-1.339 -1.606,-6.157 0,0 0.802,-7.764 -7.763,-8.567 0,0 -5.354,-1.605 -0.803,-5.086 0,0 6.692,-4.549 -4.551,-16.06 0,0 -2.409,-3.748 3.212,-1.874 0,0 16.061,12.313 14.991,2.677 0,0 0,-2.945 3.48,0.267 0,0 14.723,16.062 14.99,8.834 0,0 0.804,-3.748 3.748,1.338 0,0 8.031,13.652 8.566,3.213 0,0 -2.41,-15.259 4.015,-6.96 0,0 3.212,6.96 9.369,4.551 0,0 1.606,-1.072 3.48,2.944 0,0 1.071,8.566 10.172,4.016 l 7.496,-3.748 7.762,2.676 c 0,0 -14.187,7.497 -21.415,8.032 0,0 -5.086,-2.142 -6.424,-8.299 0,0 -1.338,-3.212 -3.748,-0.803 0,0 -4.282,0.535 -4.818,-2.677 0,0 -2.945,-4.55 -3.212,1.606 0,0 0.267,5.621 -3.213,7.495 0,0 -5.889,0.536 -8.566,-5.621 0,0 -2.408,-6.424 -5.353,-2.142 0,0 -1.874,1.607 -4.551,-3.212 l -5.889,-4.283 c 0,0 -4.551,-6.96 -4.551,0.268 0,0 -5.086,2.41 -8.833,-1.338 0,0 -5.354,-4.283 -0.268,1.873 0,0 1.606,4.551 -0.803,6.96 0,0 -4.283,2.945 1.071,4.283 0,0 4.818,1.338 6.156,6.692 0,0 0.268,3.212 0,4.551 0,0 -2.409,1.071 0,2.677 0,0 3.213,1.874 1.874,6.425 0,0 -1.873,2.408 -3.48,2.14 0,0 -4.55,-0.535 -2.141,3.213 0,0 1.07,4.55 -5.354,3.747 0,0 -7.227,-0.802 -3.48,2.946 0,0 5.354,5.086 -0.535,11.242 0,0 -10.708,6.157 0,4.283 0,0 8.833,-0.803 9.636,3.48 0,0 0.268,4.015 5.622,-0.536 0,0 8.299,-9.101 10.44,-3.479 0,0 -0.536,3.747 2.141,-0.804 0,0 1.606,-3.212 6.692,-2.409 0,0 4.015,1.874 2.41,7.496 0,0 -3.213,4.55 1.605,2.677 0,0 2.678,0 2.678,2.677 l 2.944,12.046 c 0,0 0.804,6.157 2.945,0 l 4.015,-10.172 c 0,0 1.874,-4.284 5.086,-2.946 0,0 3.212,2.945 2.142,-5.086 0,0 -2.143,-7.227 0.535,-10.707 0,0 5.622,-1.606 8.834,4.284 0,0 3.212,6.692 4.282,-2.946 L 0,0 z"
             inkscape:connector-curvature="0"
             id="path86"
             style="fill:#ffffff;fill-opacity:1;fill-rule:nonzero;stroke:none" /></g><g
           transform="translate(280.9424,614.291)"
           id="g88"><path
             d="m 0,0 c 0,0 2.409,2.409 1.606,5.89 0,0 1.606,4.55 4.551,0 l 3.48,-4.819 c 0,0 2.408,-2.141 2.944,2.409 l 0.535,12.314 c 0,0 1.072,5.353 3.213,1.339 0,0 3.747,-1.874 4.55,2.409 l 6.157,14.455 c 0,0 1.874,5.621 4.016,-1.071 l 4.551,-14.99 c 0,0 0.267,-5.889 5.353,-2.142 0,0 5.086,2.409 2.677,-2.409 0,0 -4.015,-4.016 -2.142,-9.102 0,0 1.607,-2.409 6.158,5.354 0,0 3.212,2.141 4.014,-1.873 0,0 1.072,-1.874 10.441,5.621 0,0 3.747,2.409 4.282,-1.874 0,0 0.536,-7.228 18.203,-2.945 0,0 6.692,1.071 -1.338,-4.818 0,0 -15.259,-13.384 -0.536,-17.935 0,0 3.481,-3.48 -4.015,-2.409 0,0 -13.652,0.268 -9.101,-6.96 0,0 1.606,-2.141 -1.874,-2.141 0,0 -4.551,1.339 -4.551,-2.677 0,0 7.228,-1.339 1.607,-6.157 0,0 -0.803,-7.764 7.762,-8.567 0,0 5.354,-1.605 0.803,-5.086 0,0 -6.691,-4.549 4.551,-16.06 0,0 2.409,-3.748 -3.212,-1.874 0,0 -16.062,12.313 -14.99,2.677 0,0 0,-2.945 -3.481,0.267 0,0 -14.723,16.062 -14.99,8.834 0,0 -0.804,-3.748 -3.748,1.338 0,0 -8.03,13.652 -8.566,3.213 0,0 2.41,-15.259 -4.015,-6.96 0,0 -3.212,6.96 -9.369,4.551 0,0 -1.606,-1.072 -3.48,2.944 0,0 -1.071,8.566 -10.172,4.016 l -7.496,-3.748 -7.762,2.676 c 0,0 14.187,7.497 21.415,8.032 0,0 5.085,-2.142 6.424,-8.299 0,0 1.338,-3.212 3.747,-0.803 0,0 4.284,0.535 4.819,-2.677 0,0 2.945,-4.55 3.213,1.606 0,0 -0.268,5.621 3.212,7.495 0,0 5.889,0.536 8.566,-5.621 0,0 2.408,-6.424 5.353,-2.142 0,0 1.875,1.607 4.551,-3.212 l 5.889,-4.283 c 0,0 4.551,-6.96 4.551,0.268 0,0 5.086,2.41 8.834,-1.338 0,0 5.353,-4.283 0.267,1.873 0,0 -1.606,4.551 0.803,6.96 0,0 4.283,2.945 -1.07,4.283 0,0 -4.819,1.338 -6.158,6.692 0,0 -0.267,3.212 0,4.551 0,0 2.41,1.071 0,2.677 0,0 -3.211,1.874 -1.874,6.425 0,0 1.874,2.408 3.481,2.14 0,0 4.551,-0.535 2.142,3.213 0,0 -1.071,4.55 5.353,3.747 0,0 7.228,-0.802 3.48,2.946 0,0 -5.354,5.086 0.536,11.242 0,0 10.707,6.157 0,4.283 0,0 -8.834,-0.803 -9.637,3.48 0,0 -0.269,4.015 -5.622,-0.536 0,0 -8.299,-9.101 -10.44,-3.479 0,0 0.537,3.747 -2.141,-0.804 0,0 -1.607,-3.212 -6.693,-2.409 0,0 -4.014,1.874 -2.409,7.496 0,0 3.213,4.55 -1.605,2.677 0,0 -2.678,0 -2.678,2.677 l -2.944,12.046 c 0,0 -0.804,6.157 -2.945,0 L 23.021,14.724 c 0,0 -1.873,-4.284 -5.086,-2.946 0,0 -3.212,2.945 -2.142,-5.086 0,0 2.143,-7.227 -0.535,-10.707 0,0 -5.622,-1.606 -8.834,4.284 0,0 -3.212,6.692 -4.282,-2.946 L 0,0 z"
             inkscape:connector-curvature="0"
             id="path90"
             style="fill:#ffffff;fill-opacity:1;fill-rule:nonzero;stroke:none" /></g><g
           transform="translate(228.0239,598.498)"
           id="g92"><path
             d="m 0,0 6.96,8.565 c 0,0 -10.975,13.385 -29.981,7.228 0,0 -16.596,-8.298 -14.723,-23.021 0,0 2.409,-19.808 24.627,-19.541 0,0 14.723,0.536 20.88,9.37 0,0 2.141,1.606 -0.535,4.818 l -3.48,4.015 c 0,0 -2.677,5.354 -6.425,1.606 0,0 -11.242,-9.637 -19.273,-1.874 0,0 -5.086,4.818 0.535,10.172 0,0 10.707,6.96 21.415,-1.338"
             inkscape:connector-curvature="0"
             id="path94"
             style="fill:#ffffff;fill-opacity:1;fill-rule:nonzero;stroke:none" /></g><g
           transform="translate(328.8706,598.1592)"
           id="g96"><path
             d="m 0,0 6.96,8.566 c 0,0 -10.975,13.384 -29.981,7.228 0,0 -16.596,-8.299 -14.722,-23.022 0,0 2.408,-19.808 24.627,-19.541 0,0 14.722,0.537 20.88,9.37 0,0 2.14,1.606 -0.536,4.818 l -3.48,4.016 c 0,0 -2.677,5.354 -6.425,1.606 0,0 -11.242,-9.637 -19.273,-1.874 0,0 -5.086,4.818 0.536,10.172 0,0 10.707,6.96 21.414,-1.339"
             inkscape:connector-curvature="0"
             id="path98"
             style="fill:#ffffff;fill-opacity:1;fill-rule:nonzero;stroke:none" /></g><g
           transform="translate(131.959,548.7627)"
           id="g100"><path
             d="m 0,0 -15.857,-35.888 c 0,0 -1.113,-2.225 2.503,-3.895 l 40.896,-19.474 c 0,0 2.782,-0.835 3.895,1.947 l 14.745,32.55 c 0,0 1.112,2.504 -2.504,4.451 l -6.677,3.339 c 0,0 -3.894,1.947 -5.007,-1.391 l -6.399,-16.414 c 0,0 0,-4.173 -4.173,-2.504 -4.173,1.669 -0.835,0.556 -0.835,0.556 0,0 -4.729,0.835 -2.782,4.73 l 5.286,10.293 c 0,0 2.782,3.895 -1.391,6.121 l -3.06,1.669 c 0,0 -3.338,3.339 -6.399,-3.895 l -3.895,-9.737 c 0,0 -0.835,-3.616 -3.895,-2.782 0,0 -3.617,0.557 -1.113,5.564 l 7.79,15.023 c 0,0 3.06,5.008 -2.782,7.234 L 3.895,-0.556 C 3.895,-0.556 0.278,0.556 0,0"
             inkscape:connector-curvature="0"
             id="path102"
             style="fill:#ffffff;fill-opacity:1;fill-rule:nonzero;stroke:none" /></g><g
           transform="translate(154.4937,476.9863)"
           id="g104"><path
             d="m 0,0 -28.377,8.068 c 0,0 -4.729,-0.835 -3.617,3.895 l 1.391,4.451 c 0,0 1.114,2.504 -3.894,3.895 l -3.617,1.113 c 0,0 -5.008,4.451 -7.233,-5.008 l -7.234,-26.429 c 0,0 -1.112,-3.895 5.287,-4.451 l 3.616,-1.113 c 0,0 3.895,-2.504 5.286,3.895 l 0.278,2.782 c 0,0 -1.113,3.894 5.843,1.947 l 28.098,-8.902 c 0,0 3.338,-1.113 4.729,3.616 l 1.948,5.564 c 0,0 2.782,5.008 -2.504,6.677"
             inkscape:connector-curvature="0"
             id="path106"
             style="fill:#ffffff;fill-opacity:1;fill-rule:nonzero;stroke:none" /></g><g
           transform="translate(98.0186,442.7676)"
           id="g108"><path
             d="m 0,0 1.669,8.068 c 0,0 -1.113,5.008 8.902,3.617 L 48.407,5.842 c 0,0 5.008,0.278 3.895,-6.677 L 50.911,-7.79 c 0,0 0,-3.894 -7.512,-2.503 l -39.783,6.12 c 0,0 -3.894,0.278 -3.616,4.173"
             inkscape:connector-curvature="0"
             id="path110"
             style="fill:#ffffff;fill-opacity:1;fill-rule:nonzero;stroke:none" /></g><g
           transform="translate(98.0186,425.2407)"
           id="g112"><path
             d="m 0,0 44.791,-2.504 c 0,0 3.616,2.504 3.06,-7.511 l -0.279,-3.895 c 0,0 1.391,-2.504 -4.729,-5.286 l -12.241,-6.12 c 0,0 -8.068,-3.895 0.278,-3.895 l 14.189,0 c 0,0 2.503,0.556 2.503,-5.843 l -0.278,-4.729 c 0,0 0.835,-4.452 -5.286,-4.73 l -42.286,-2.225 c 0,0 -3.339,-2.504 -3.895,5.842 l 0.278,8.625 c 0,0 0.278,4.172 4.173,6.398 l 10.85,6.955 c 0,0 7.511,3.061 -0.278,2.782 l -11.128,0 c 0,0 -3.339,-1.112 -3.339,6.121 l 0,5.007 c 0,0 -1.39,5.842 3.617,5.008"
             inkscape:connector-curvature="0"
             id="path114"
             style="fill:#ffffff;fill-opacity:1;fill-rule:nonzero;stroke:none" /></g><g
           transform="translate(113.5977,345.6738)"
           id="g116"><path
             d="M 0,0 C 0,0 -0.834,0.834 0,1.391 L 10.85,5.842 12.519,-0.278 0,0 z m 39.227,-9.737 -0.835,6.676 c 0,0 1.112,4.452 -4.173,3.617 l -3.339,0 c 0,0 -3.616,-1.112 -4.451,2.782 l -0.834,5.008 c 0,0 -0.834,2.781 2.782,3.616 l 3.894,1.113 c 0,0 4.73,1.113 2.226,7.512 0,0 -2.226,10.85 -5.842,10.015 L -16.136,6.398 c 0,0 -4.451,0 -3.338,-8.624 l 0.834,-7.79 c 0,0 -0.278,-5.285 10.294,-5.285 l 44.513,-0.557 c 0,0 5.285,-0.834 3.06,6.121"
             inkscape:connector-curvature="0"
             id="path118"
             style="fill:#ffffff;fill-opacity:1;fill-rule:nonzero;stroke:none" /></g><g
           transform="translate(130.0117,281.4082)"
           id="g120"><path
             d="m 0,0 c 0,0 -1.947,-0.834 -3.617,2.782 0,0 -7.511,10.572 -1.391,13.632 0,0 6.399,2.505 9.459,-5.563 L 6.955,3.339 0,0 z m 38.114,2.505 -3.617,8.346 c -3.338,6.398 -6.398,2.503 -6.398,2.503 L 15.579,6.399 C 7.789,3.062 12.797,9.182 12.797,9.182 l 12.519,11.963 c 5.564,5.006 2.504,8.067 2.504,8.067 l -3.616,9.459 c -3.06,6.954 -5.286,4.173 -5.286,4.173 L 9.181,32.271 C 8.346,30.324 6.398,30.047 6.398,30.047 c -8.902,6.397 -18.639,0 -18.639,0 -13.354,-6.121 -8.068,-21.979 -8.068,-21.979 l 10.85,-26.708 c 1.669,-5.006 6.121,-3.338 6.121,-3.338 l 40.061,18.64 c 3.06,2.504 1.391,5.843 1.391,5.843"
             inkscape:connector-curvature="0"
             id="path122"
             style="fill:#ffffff;fill-opacity:1;fill-rule:nonzero;stroke:none" /></g><g
           transform="translate(158.3882,238.8438)"
           id="g124"><path
             d="m 0,0 -9.181,14.188 c 0,0 -2.782,2.782 2.504,5.564 l 8.346,4.451 c 0,0 10.85,2.505 16.692,-2.781 0,0 16.971,-9.46 12.798,-31.159 0,0 -1.113,-15.302 -28.377,-16.971 0,0 -19.752,0 -24.482,19.753 0,0 -1.947,6.955 -1.947,9.459 0,0 -1.113,6.676 5.842,6.397 l 4.451,0 c 0,0 4.174,1.114 5.843,-6.675 0,0 1.113,-13.355 13.075,-12.798 0,0 9.181,10e-4 10.572,9.738 0,0 0,8.066 -7.511,11.962 L 5.842,10.571 c 0,0 -1.669,-0.835 1.113,-4.451 0,0 3.061,-3.059 -1.391,-5.563 C 5.564,0.557 1.669,-1.67 0,0"
             inkscape:connector-curvature="0"
             id="path126"
             style="fill:#ffffff;fill-opacity:1;fill-rule:nonzero;stroke:none" /></g><g
           transform="translate(381.4702,500.9209)"
           id="g128"><path
             d="m 0,0 c -5.525,0 -10.005,4.548 -10.005,10.159 0,5.61 4.48,10.158 10.005,10.158 5.525,0 10.005,-4.548 10.005,-10.158 C 10.005,4.548 5.525,0 0,0 m 0.231,37.71 c -14.154,0 -25.627,-12.473 -25.627,-27.859 0,-15.386 11.473,-27.859 25.627,-27.859 14.154,0 25.627,12.473 25.627,27.859 0,15.386 -11.473,27.859 -25.627,27.859"
             inkscape:connector-curvature="0"
             id="path130"
             style="fill:#ffffff;fill-opacity:1;fill-rule:nonzero;stroke:none" /></g><g
           transform="translate(405.3276,471.3687)"
           id="g132"><path
             d="m 0,0 -2.155,5.541 c 0,0 -2.77,6.003 2.463,6.772 l 5.849,1.386 c 0,0 4.926,2.154 7.542,-8.466 l 5.695,-25.243 c 0,0 2.924,-6.465 -6.003,-8.157 l -4.156,0.153 c 0,0 -4.925,-1.385 -5.233,3.848 0,0 0.924,6.465 -4.31,5.388 l -24.011,-6.157 c 0,0 -6.465,-2.925 -7.234,4.925 l -0.616,6.003 c 0,0 -2.309,5.541 3.694,6.157 l 25.089,5.695 c 0,0 3.078,0.616 3.386,2.155"
             inkscape:connector-curvature="0"
             id="path134"
             style="fill:#ffffff;fill-opacity:1;fill-rule:nonzero;stroke:none" /></g><g
           transform="translate(412.7158,422.8809)"
           id="g136"><path
             d="m 0,0 -0.461,7.696 c 0,0 -1.078,2.617 4.155,3.387 l 5.849,0.307 c 0,0 5.233,0.924 5.08,-10.312 l 0.615,-27.706 c 0,0 1.386,-4.464 -7.388,-4.618 0,0 -6.002,-1.538 -6.157,5.08 l 0.154,5.541 c 0,0 0.616,2.155 -6.003,2.001 l -25.396,-0.462 c 0,0 -2.771,-0.769 -3.079,5.08 l 0.154,3.54 c 0,0 -1.385,5.849 3.386,6.003 l 26.782,0.307 c 0,0 3.079,-0.308 2.309,4.156"
             inkscape:connector-curvature="0"
             id="path138"
             style="fill:#ffffff;fill-opacity:1;fill-rule:nonzero;stroke:none" /></g><g
           transform="translate(410.7148,360.3867)"
           id="g140"><path
             d="m 0,0 -6.926,-0.615 c -5.541,-0.155 -4.772,0.462 -4.772,0.462 l 0,7.696 c 0,3.539 4.002,0.77 4.002,0.77 L 0.154,3.694 C 3.232,2.002 0,0 0,0 m 15.392,-4.31 0,8.004 c 0.154,8.004 -2.155,8.313 -2.155,8.313 l -38.172,20.162 c -4.464,2.31 -5.233,-2.001 -5.233,-2.001 l -0.308,-6.925 c -0.616,-5.696 1.231,-6.619 1.231,-6.619 l 5.388,-1.54 c 3.693,-0.77 2.462,-6.926 2.462,-6.926 l -0.308,-6.465 c -0.308,-7.08 -1.847,-6.464 -1.847,-6.464 l -6.926,-1.693 c -4.618,-1.23 -3.54,-4.771 -3.54,-4.771 l -0.77,-6.619 c -1.231,-5.695 3.078,-4.463 3.078,-4.463 l 43.868,11.544 c 4.925,1.384 3.232,6.463 3.232,6.463"
             inkscape:connector-curvature="0"
             id="path142"
             style="fill:#ffffff;fill-opacity:1;fill-rule:nonzero;stroke:none" /></g><g
           transform="translate(420.104,320.8281)"
           id="g144"><path
             d="M 0,0 C 0,0 2,9.081 -4.618,8.927 L -44.791,8.312 c 0,0 -2.154,-0.308 -3.693,-6.465 0,0 -3.54,-5.387 0.769,-8.619 l 12.776,-8.774 c 0,0 4.001,-2.924 -1.078,-2.308 l -14.623,1.385 c 0,0 -3.386,0.923 -4.771,-5.08 0,0 -4.309,-6.157 0.154,-9.543 l 31.4,-26.32 c 0,0 3.54,-3.386 6.772,2.617 l 2.617,4.617 c 0,0 2.77,4.771 -1.847,8.312 l -11.698,7.387 c 0,0 -4.31,3.849 1.693,3.387 l 12.467,-2.924 c 0,0 4.157,-1.847 7.389,4.771 l 1.693,4.31 c 0,0 2.924,4.156 -3.233,8.158 l -10.928,6.772 c 0,0 -6.772,4.31 1.693,3.694 l 12.776,-1.847 c 0,0 3.54,-0.462 4.155,4.156 L 0,0 z"
             inkscape:connector-curvature="0"
             id="path146"
             style="fill:#ffffff;fill-opacity:1;fill-rule:nonzero;stroke:none" /></g><g
           transform="translate(373.0049,240.7891)"
           id="g148"><path
             d="m 0,0 -9.082,1.076 c 0,0 -2,0.925 0.924,5.542 0,0 1.847,3.694 5.079,0.461 L 2.924,1.385 C 2.924,1.385 3.541,-1.077 0,0 m 17.239,4.155 -27.552,30.168 c -1.533,1.72 -2.939,2.191 -4.157,2.011 -2.816,-0.417 -4.616,-4.319 -4.616,-4.319 -4.618,-4.157 -1.847,-7.08 -1.847,-7.08 l 4.617,-4.464 c 2.309,-1.539 -0.154,-4.772 -0.154,-4.772 l -5.233,-8.157 c -2.154,-4.156 -4.31,-2.155 -4.31,-2.155 l -5.079,1.231 c -4.771,1.386 -5.695,-1.847 -5.695,-1.847 l -4.156,-4.618 c -4.002,-5.695 -1.385,-7.08 -1.385,-7.08 l 43.405,-8.004 c 10.466,-2.155 11.544,1.539 11.544,1.539 l 4.925,6.926 C 22.472,0.461 17.239,4.155 17.239,4.155"
             inkscape:connector-curvature="0"
             id="path150"
             style="fill:#ffffff;fill-opacity:1;fill-rule:nonzero;stroke:none" /></g></g></g></g></svg>